HIERARCHY
ROOT Hips
{
	OFFSET 0.000000 0.000000 0.000000
	CHANNELS 6 Xposition Yposition Zposition Xrotation Yrotation Zrotation
	JOINT LeftUpLeg_virtual
	{
		OFFSET 0.000000 0.000000 0.000000
		CHANNELS 3 Xrotation Yrotation Zrotation
		JOINT LeftUpLeg
		{
			OFFSET 15.427100 -6.655098 0.678600
			CHANNELS 3 Xrotation Yrotation Zrotation
			JOINT LeftLeg
			{
				OFFSET 4.081073 -39.591068 13.024000
				CHANNELS 3 Xrotation Yrotation Zrotation
				JOINT LeftFoot
				{
					OFFSET -4.081074 -37.707932 -15.979700
					CHANNELS 3 Xrotation Yrotation Zrotation
					JOINT LeftToeBase
					{
						OFFSET 5.346399 -15.068900 20.645000
						CHANNELS 3 Xrotation Yrotation Zrotation
						JOINT LeftToe_End
						{
							OFFSET 2.754700 0.931300 11.300900
							CHANNELS 3 Xrotation Yrotation Zrotation
							End Site
							{
								OFFSET 0 0 0
							}
						}
					}
				}
			}
		}
	}
	JOINT RightUpLeg_virtual
	{
		OFFSET 0.000000 0.000000 0.000000
		CHANNELS 3 Xrotation Yrotation Zrotation
		JOINT RightUpLeg
		{
			OFFSET -15.569500 -6.655098 0.678600
			CHANNELS 3 Xrotation Yrotation Zrotation
			JOINT RightLeg
			{
				OFFSET -4.081825 -39.591045 13.023800
				CHANNELS 3 Xrotation Yrotation Zrotation
				JOINT RightFoot
				{
					OFFSET 4.081824 -37.707954 -15.979600
					CHANNELS 3 Xrotation Yrotation Zrotation
					JOINT RightToeBase
					{
						OFFSET -5.346400 -15.068900 20.645000
						CHANNELS 3 Xrotation Yrotation Zrotation
						JOINT RightToe_End
						{
							OFFSET -2.754700 0.931300 11.300900
							CHANNELS 3 Xrotation Yrotation Zrotation
							End Site
							{
								OFFSET 0 0 0
							}
						}
					}
				}
			}
		}
	}
	JOINT Spine_virtual
	{
		OFFSET 0.000000 0.000000 0.000000
		CHANNELS 3 Xrotation Yrotation Zrotation
		JOINT Spine
		{
			OFFSET -0.279200 12.230698 -2.892100
			CHANNELS 3 Xrotation Yrotation Zrotation
			JOINT Spine1
			{
				OFFSET -0.232667 10.192268 -1.242267
				CHANNELS 3 Xrotation Yrotation Zrotation
				JOINT Spine1_split
				{
					OFFSET -0.232667 10.192268 -1.242267
					CHANNELS 3 Xrotation Yrotation Zrotation
					JOINT Spine2
					{
						OFFSET -0.232667 10.192268 -1.242267
						CHANNELS 3 Xrotation Yrotation Zrotation
						JOINT Neck_virtual
						{
							OFFSET 0.000000 0.000000 0.000000
							CHANNELS 3 Xrotation Yrotation Zrotation
							JOINT Neck
							{
								OFFSET -0.418800 17.814194 8.416900
								CHANNELS 3 Xrotation Yrotation Zrotation
								JOINT Head
								{
									OFFSET 0.000000 7.031097 3.806800
									CHANNELS 3 Xrotation Yrotation Zrotation
									JOINT HeadTop_End
									{
										OFFSET 0.000000 24.646606 12.978600
										CHANNELS 3 Xrotation Yrotation Zrotation
										End Site
										{
											OFFSET 0 0 0
										}
									}
								}
							}
						}
						JOINT LeftShoulder_virtual
						{
							OFFSET 0.000000 0.000000 0.000000
							CHANNELS 3 Xrotation Yrotation Zrotation
							JOINT LeftShoulder
							{
								OFFSET 8.476499 7.247704 -3.868750
								CHANNELS 3 Xrotation Yrotation Zrotation
								JOINT LeftShoulder_split
								{
									OFFSET 8.476499 7.247704 -3.868750
									CHANNELS 3 Xrotation Yrotation Zrotation
									JOINT LeftArm
									{
										OFFSET 9.308998 -2.777710 0.208600
										CHANNELS 3 Xrotation Yrotation Zrotation
										JOINT LeftForeArm
										{
											OFFSET 29.972298 0.000000 0.000000
											CHANNELS 3 Xrotation Yrotation Zrotation
											JOINT LeftHand
											{
												OFFSET 26.026505 0.000000 0.000000
												CHANNELS 3 Xrotation Yrotation Zrotation
												End Site
												{
													OFFSET 0 0 0
												}
											}
										}
									}
								}
							}
						}
						JOINT RightShoulder_virtual
						{
							OFFSET 0.000000 0.000000 0.000000
							CHANNELS 3 Xrotation Yrotation Zrotation
							JOINT RightShoulder
							{
								OFFSET -7.570500 7.247704 -3.868750
								CHANNELS 3 Xrotation Yrotation Zrotation
								JOINT RightShoulder_split
								{
									OFFSET -7.570500 7.247704 -3.868750
									CHANNELS 3 Xrotation Yrotation Zrotation
									JOINT RightArm
									{
										OFFSET -9.308998 -2.777710 0.208500
										CHANNELS 3 Xrotation Yrotation Zrotation
										JOINT RightForeArm
										{
											OFFSET -29.972300 0.000000 0.000000
											CHANNELS 3 Xrotation Yrotation Zrotation
											JOINT RightHand
											{
												OFFSET -26.026505 0.000000 0.000000
												CHANNELS 3 Xrotation Yrotation Zrotation
												End Site
												{
													OFFSET 0 0 0
												}
											}
										}
									}
								}
							}
						}
					}
				}
			}
		}
	}
}
MOTION
Frames: 6
Frame Time: 0.03333333
4.445597 86.546509 1.424412 0.000000 0.000000 0.000000 17.384110 -85.537751 19.035761 -22.395048 30.947410 28.778159 20.541992 -9.722668 -0.376619 -5.289895 3.152169 -17.140443 0.689797 -0.519547 -0.650704 0.000000 0.000000 0.000000 8.221064 -85.066441 10.695954 -22.847095 -9.845579 -25.861511 14.573926 5.381998 -4.204524 0.850943 6.282066 21.959086 3.469138 0.407236 0.898467 0.000000 0.000000 0.000000 7.745278 -81.423477 9.831431 6.591739 -3.681775 -2.818739 1.984964 -7.924368 -0.430438 0.505432 0.315507 0.192626 0.000000 0.000000 0.000000 1.977099 -8.382668 -0.873858 -8.351492 6.219086 7.020684 91.225209 78.026592 -95.091547 0.000000 0.000000 0.000000 3.300988 -8.965416 -0.208692 5.113832 -1.280198 11.103252 -3.613925 -4.442818 3.043370 -35.366491 11.723083 -3.174696 -3.882251 -10.870560 0.459881 0.000000 0.000000 0.000000 2.533708 -8.682021 -0.827838 -0.105705 1.099859 -21.503498 0.923205 1.581584 7.586078 -49.862150 42.139982 44.878267 179.096562 37.379580 -177.985154 0.000000 0.000000 0.000000 
4.357945 86.538887 1.415314 0.000000 0.000000 0.000000 16.538705 -85.442286 18.245476 -22.291398 30.915403 28.712613 20.497637 -9.803217 -0.393771 -5.300487 3.177140 -17.146254 0.680697 -0.518989 -0.654932 0.000000 0.000000 0.000000 7.550714 -84.975627 10.092188 -22.621872 -9.783388 -25.940686 14.620947 5.211728 -4.229470 0.660326 6.221390 22.062052 3.455887 0.402331 0.894055 0.000000 0.000000 0.000000 7.527241 -81.317186 9.663890 6.570099 -3.782428 -2.884684 1.978611 -8.016450 -0.414756 0.505439 0.315835 0.188671 0.000000 0.000000 0.000000 1.981325 -8.476218 -0.862376 -8.373006 6.291097 7.241542 93.917997 77.959615 -97.583500 0.000000 0.000000 0.000000 3.319477 -9.059791 -0.183681 5.023446 -1.056763 11.122475 -3.640891 -4.444541 3.025388 -35.325967 11.572740 -3.396385 -3.890756 -10.886796 0.453966 0.000000 0.000000 0.000000 2.549746 -8.778046 -0.820386 -0.012270 1.150340 -21.426502 0.905755 1.586366 7.641532 -49.362061 41.684518 44.644814 179.116534 37.018584 -177.976643 0.000000 0.000000 0.000000 
4.272135 86.531769 1.410583 0.000000 0.000000 0.000000 15.651809 -85.350297 17.422503 -22.192068 30.882328 28.640300 20.460793 -9.878689 -0.403995 -5.301296 3.194838 -17.154498 0.676167 -0.517185 -0.660615 0.000000 0.000000 0.000000 6.842607 -84.882545 9.457715 -22.386112 -9.726530 -26.023198 14.666091 5.042069 -4.261666 0.464252 6.155991 22.173787 3.435406 0.397052 0.892491 0.000000 0.000000 0.000000 7.256365 -81.215457 9.453706 6.558845 -3.880953 -2.963221 1.970244 -8.108010 -0.392911 0.506501 0.314726 0.186209 0.000000 0.000000 0.000000 1.985022 -8.568623 -0.845496 -8.394162 6.370865 7.462082 96.585575 77.855072 -100.032492 0.000000 0.000000 0.000000 3.341070 -9.154221 -0.152017 4.931940 -0.841549 11.144967 -3.661033 -4.443526 3.011422 -35.294712 11.434773 -3.616732 -3.905967 -10.889609 0.439742 0.000000 0.000000 0.000000 2.565634 -8.873456 -0.807505 0.087458 1.202512 -21.341032 0.887514 1.599168 7.693410 -48.829968 41.217207 44.385738 179.144578 36.663994 -177.966412 0.000000 0.000000 0.000000 
4.188502 86.522835 1.407310 0.000000 0.000000 0.000000 14.738326 -85.259961 16.579241 -22.100353 30.848450 28.564753 20.432185 -9.948967 -0.408513 -5.298061 3.207696 -17.163002 0.679270 -0.513952 -0.669242 0.000000 0.000000 0.000000 6.109025 -84.784135 8.801988 -22.142963 -9.674633 -26.111525 14.716822 4.874498 -4.300686 0.266576 6.086535 22.297718 3.404476 0.391132 0.894329 0.000000 0.000000 0.000000 6.938143 -81.119029 9.204549 6.560452 -3.977256 -3.052598 1.960111 -8.197239 -0.364554 0.506957 0.315346 0.186172 0.000000 0.000000 0.000000 1.987889 -8.657525 -0.823095 -8.412136 6.457379 7.673557 99.167817 77.717458 -102.389160 0.000000 0.000000 0.000000 3.365111 -9.246899 -0.113873 4.843001 -0.645877 11.171833 -3.668790 -4.439495 2.999245 -35.273986 11.320161 -3.824576 -3.927319 -10.886556 0.417626 0.000000 0.000000 0.000000 2.580485 -8.966241 -0.788469 0.193112 1.259904 -21.246169 0.866668 1.614605 7.736922 -48.273861 40.753563 44.098024 179.184467 36.328192 -177.956740 0.000000 0.000000 0.000000 
4.106675 86.509651 1.406277 0.000000 0.000000 0.000000 13.825100 -85.169973 15.739590 -22.017159 30.813507 28.488849 20.412157 -10.016372 -0.408944 -5.295502 3.217479 -17.172786 0.687714 -0.509258 -0.680333 0.000000 0.000000 0.000000 5.367024 -84.680535 8.139920 -21.901524 -9.628433 -26.208857 14.784197 4.708929 -4.343701 0.065887 6.013530 22.432399 3.378633 0.385045 0.898627 0.000000 0.000000 0.000000 6.582235 -81.028283 8.924499 6.575770 -4.072202 -3.151150 1.948201 -8.282421 -0.329595 0.507004 0.313758 0.190971 0.000000 0.000000 0.000000 1.989579 -8.741420 -0.794707 -8.425129 6.549421 7.867948 101.613455 77.553315 -104.612407 0.000000 0.000000 0.000000 3.389411 -9.335492 -0.070072 4.760956 -0.480429 11.202800 -3.662900 -4.436358 2.989642 -35.263560 11.237975 -4.010478 -3.950699 -10.886892 0.391578 0.000000 0.000000 0.000000 2.594048 -9.054144 -0.762453 0.302926 1.323391 -21.142320 0.844110 1.630639 7.769567 -47.700634 40.305704 43.781970 179.237742 36.020915 -177.948872 0.000000 0.000000 0.000000 
4.027198 86.490997 1.404812 0.000000 0.000000 0.000000 12.952623 -85.081235 14.940433 -21.941153 30.778663 28.414977 20.401399 -10.083043 -0.407752 -5.295524 3.225337 -17.184520 0.695797 -0.503432 -0.692019 0.000000 0.000000 0.000000 4.648261 -84.572236 7.500641 -21.670933 -9.588172 -26.316435 14.872631 4.545137 -4.387882 -0.142535 5.936695 22.571654 3.373153 0.379906 0.903086 0.000000 0.000000 0.000000 6.215445 -80.941601 8.635139 6.602737 -4.165695 -3.257028 1.935211 -8.362133 -0.288401 0.506618 0.309582 0.193787 0.000000 0.000000 0.000000 1.990136 -8.818835 -0.760413 -8.434055 6.643887 8.041101 103.888509 77.370552 -106.678232 0.000000 0.000000 0.000000 3.412145 -9.418104 -0.021372 4.690071 -0.354415 11.239758 -3.643106 -4.433612 2.982665 -35.260384 11.188666 -4.165494 -3.969660 -10.891268 0.365954 0.000000 0.000000 0.000000 2.605278 -9.135104 -0.729298 0.415133 1.393184 -21.030537 0.824456 1.647586 7.789240 -47.115171 39.878152 43.442766 179.302848 35.748380 -177.941222 0.000000 0.000000 0.000000 
